<?xml version="1.0" encoding="utf-8" ?>	<!-- Generator: Assembly 1.8 - http://assemblyapp.co -->	<svg version="1.1" xmlns="http://www.w3.org/2000/svg" xmlns:xlink="http://www.w3.org/1999/xlink" width="2048.00" height="2048.00" viewBox="0 0 2048.0 2048.0">		<g id="document" transform="matrix(1,0,0,1,1024.0,1024.0)">			<g>				<defs>					<filter id="uzabEpOu" x="0.00%" y="0.00%" width="138.10%" height="193.57%" filterUnits="objectBoundingBox">						<feOffset dx="38.93" dy="38.93" in="SourceAlpha" result="shadowOffsetOuter1" />						<feGaussianBlur stdDeviation="19.47" in="shadowOffsetOuter1" result="shadowBlurOuter1" />						<feFlood flood-color="#000000" flood-opacity="0.14" />						<feComposite in2="shadowBlurOuter1" operator="in" />						<feMerge>							<feMergeNode />							<feMergeNode in="SourceGraphic" />						</feMerge>					</filter>				</defs>				<path d="M-540.192,24.8655 C-529.972,73.0448 -489.093,108.084 -437.993,108.084 C-386.894,108.084 -346.015,71.5848 -335.795,24.8655 L-540.192,24.8655 Z " fill="#663b14" fill-opacity="1.00" filter="url(#uzabEpOu)" />				<defs>					<filter id="sp1d5DN0" x="0.00%" y="0.00%" width="138.10%" height="193.57%" filterUnits="objectBoundingBox">						<feOffset dx="38.93" dy="38.93" in="SourceAlpha" result="shadowOffsetOuter1" />						<feGaussianBlur stdDeviation="19.47" in="shadowOffsetOuter1" result="shadowBlurOuter1" />						<feFlood flood-color="#000000" flood-opacity="0.14" />						<feComposite in2="shadowBlurOuter1" operator="in" />						<feMerge>							<feMergeNode />							<feMergeNode in="SourceGraphic" />						</feMerge>					</filter>				</defs>				<path d="M436.533,108.084 C487.633,108.084 528.512,71.5848 538.732,24.8655 L334.335,24.8655 C344.555,73.0448 386.894,108.084 436.533,108.084 Z " fill="#663b14" fill-opacity="1.00" filter="url(#sp1d5DN0)" />				<defs>					<filter id="ShIw1NrB" x="0.00%" y="0.00%" width="106.64%" height="113.81%" filterUnits="objectBoundingBox">						<feOffset dx="38.93" dy="38.93" in="SourceAlpha" result="shadowOffsetOuter1" />						<feGaussianBlur stdDeviation="19.47" in="shadowOffsetOuter1" result="shadowBlurOuter1" />						<feFlood flood-color="#000000" flood-opacity="0.14" />						<feComposite in2="shadowBlurOuter1" operator="in" />						<feMerge>							<feMergeNode />							<feMergeNode in="SourceGraphic" />						</feMerge>					</filter>				</defs>				<path d="M-346.015,-124.828 L-318.275,-124.828 L318.275,-124.828 L341.635,-124.828 C474.493,-124.828 582.531,-232.867 582.531,-365.725 L582.531,-656.26 C582.531,-673.78 567.931,-689.84 548.952,-688.38 C531.432,-686.92 518.292,-672.32 518.292,-654.8 L518.292,-504.423 C518.292,-463.543 483.253,-429.964 440.913,-431.424 C401.494,-432.884 370.834,-466.463 370.834,-505.883 L370.834,-542.382 C370.834,-559.902 356.235,-575.962 337.255,-574.502 C321.195,-573.042 306.595,-558.442 306.595,-540.922 L306.595,-354.045 C306.595,-313.166 271.556,-279.586 229.217,-281.046 C191.257,-282.506 160.598,-316.086 160.598,-355.505 L160.598,-393.464 C160.598,-410.984 147.458,-425.584 129.938,-427.044 C110.958,-428.504 96.3585,-413.904 96.3585,-394.924 L96.3585,-314.626 C96.3585,-260.606 52.5592,-215.347 -2.91995,-215.347 C-58.3991,-215.347 -102.198,-260.606 -102.198,-316.086 L-102.198,-396.384 C-102.198,-413.904 -116.798,-429.964 -135.778,-428.504 C-153.298,-427.044 -166.437,-412.444 -166.437,-394.924 L-166.437,-355.505 C-166.437,-314.626 -201.477,-281.046 -243.816,-282.506 C-283.236,-283.966 -313.895,-317.546 -313.895,-356.965 L-313.895,-542.382 C-313.895,-559.902 -328.495,-575.962 -347.475,-574.502 C-364.994,-573.042 -378.134,-558.442 -378.134,-540.922 L-378.134,-504.423 C-378.134,-463.543 -413.174,-429.964 -455.513,-431.424 C-494.932,-432.884 -525.592,-466.463 -525.592,-505.883 L-525.592,-656.26 C-525.592,-673.78 -540.192,-688.38 -557.712,-688.38 L-559.172,-688.38 C-576.691,-686.92 -589.831,-672.32 -589.831,-654.8 L-589.831,-365.725 C-586.911,-232.867 -478.873,-124.828 -346.015,-124.828 Z " fill="#fff6de" fill-opacity="1.00" filter="url(#ShIw1NrB)" />				<defs>					<filter id="kJk3S5Cu" x="0.00%" y="0.00%" width="106.22%" height="105.34%" filterUnits="objectBoundingBox">						<feOffset dx="38.93" dy="38.93" in="SourceAlpha" result="shadowOffsetOuter1" />						<feGaussianBlur stdDeviation="19.47" in="shadowOffsetOuter1" result="shadowBlurOuter1" />						<feFlood flood-color="#000000" flood-opacity="0.14" />						<feComposite in2="shadowBlurOuter1" operator="in" />						<feMerge>							<feMergeNode />							<feMergeNode in="SourceGraphic" />						</feMerge>					</filter>				</defs>				<path d="M343.095,-83.9258 C499.312,-83.9258 626.331,-210.944 626.331,-367.161 L626.331,-656.237 C626.331,-697.117 591.291,-730.696 548.952,-729.236 C509.532,-727.776 478.873,-694.197 478.873,-654.777 L478.873,-504.399 C478.873,-486.88 464.273,-470.82 445.293,-472.28 C427.774,-473.74 414.634,-488.34 414.634,-505.859 L414.634,-542.359 C414.634,-583.238 379.594,-616.818 337.255,-615.358 C297.835,-613.898 267.176,-580.318 267.176,-540.899 L267.176,-354.022 C267.176,-336.502 252.576,-320.442 233.596,-321.902 C216.077,-323.362 202.937,-337.962 202.937,-355.482 L202.937,-393.441 C202.937,-432.861 172.277,-466.44 132.858,-467.9 C90.5186,-469.36 55.4791,-435.78 55.4791,-394.901 L55.4791,-314.602 C55.4791,-282.483 29.1995,-256.203 -2.91997,-256.203 C-35.0395,-256.203 -61.3191,-282.483 -61.3191,-314.602 L-61.3191,-394.901 C-61.3191,-435.78 -96.3586,-469.36 -138.698,-467.9 C-178.117,-466.44 -208.777,-432.861 -208.777,-393.441 L-208.777,-354.022 C-208.777,-336.502 -224.837,-320.442 -242.356,-321.902 C-259.876,-323.362 -273.016,-337.962 -273.016,-355.482 L-273.016,-542.359 C-273.016,-583.238 -308.055,-616.818 -350.395,-615.358 C-389.814,-613.898 -420.474,-580.318 -420.474,-540.899 L-420.474,-504.399 C-420.474,-486.88 -435.073,-470.82 -454.053,-472.28 C-465.733,-473.74 -478.873,-488.34 -478.873,-505.859 L-478.873,-656.237 C-478.873,-697.117 -513.912,-730.696 -556.252,-729.236 C-595.671,-727.776 -626.331,-695.657 -626.331,-654.777 L-626.331,-365.702 C-626.331,-209.484 -499.312,-82.4658 -343.095,-82.4658 L-315.355,-82.4658 L-315.355,-13.8469 L-581.071,-13.8469 L-581.071,5.13284 C-581.071,85.4316 -515.372,151.131 -435.073,151.131 C-385.434,151.131 -341.635,126.311 -315.355,88.3516 L-315.355,238.729 L-166.437,440.206 L-166.437,481.086 L-166.437,559.924 C-166.437,653.363 -90.5186,729.282 2.91996,729.282 C96.3585,729.282 172.277,653.363 172.277,559.924 L172.277,481.086 L172.277,440.206 L319.735,238.729 L319.735,86.8916 C346.015,124.851 389.814,149.671 439.453,149.671 C519.752,149.671 585.451,83.9716 585.451,3.67284 L585.451,-16.7668 L319.735,-16.7668 L319.735,-85.3858 L343.095,-85.3858 C343.095,-85.3858 343.095,-83.9258 343.095,-83.9258 Z " fill="#000000" fill-opacity="1.00" filter="url(#kJk3S5Cu)" />				<defs>					<filter id="l1eeqQZf" x="0.00%" y="0.00%" width="106.63%" height="113.81%" filterUnits="objectBoundingBox">						<feOffset dx="38.93" dy="38.93" in="SourceAlpha" result="shadowOffsetOuter1" />						<feGaussianBlur stdDeviation="19.47" in="shadowOffsetOuter1" result="shadowBlurOuter1" />						<feFlood flood-color="#000000" flood-opacity="0.14" />						<feComposite in2="shadowBlurOuter1" operator="in" />						<feMerge>							<feMergeNode />							<feMergeNode in="SourceGraphic" />						</feMerge>					</filter>				</defs>				<path d="M-586.911,-654.805 C-586.911,-672.324 -573.771,-686.924 -556.252,-688.384 L-554.792,-688.384 C-537.272,-688.384 -522.672,-673.784 -522.672,-656.265 L-522.672,-505.887 C-522.672,-466.467 -492.013,-432.888 -452.593,-431.428 C-410.254,-429.968 -375.214,-463.547 -375.214,-504.427 L-375.214,-540.926 C-375.214,-558.446 -362.075,-573.046 -344.555,-574.506 C-325.575,-575.966 -310.975,-561.366 -310.975,-542.386 L-310.975,-355.509 C-310.975,-316.09 -280.316,-282.51 -240.896,-281.05 C-198.557,-279.59 -163.518,-313.17 -163.518,-354.049 L-163.518,-393.469 C-163.518,-410.988 -150.378,-425.588 -132.858,-427.048 C-113.878,-428.508 -99.2785,-413.908 -99.2785,-394.928 L-99.2785,-314.63 C-99.2785,-260.611 -55.4791,-215.351 1.39234e-05,-215.351 C55.4792,-215.351 99.2785,-259.151 99.2785,-314.63 L99.2785,-394.928 C99.2785,-412.448 113.878,-428.508 132.858,-427.048 C150.378,-425.588 163.518,-410.988 163.518,-393.469 L163.518,-355.509 C163.518,-316.09 194.177,-282.51 233.596,-281.05 C275.936,-279.59 310.975,-313.17 310.975,-354.049 L310.975,-540.926 C310.975,-558.446 324.115,-573.046 341.635,-574.506 C360.615,-575.966 375.214,-561.366 375.214,-542.386 L375.214,-505.887 C375.214,-466.467 405.874,-432.888 445.293,-431.428 C487.633,-429.968 522.672,-463.547 522.672,-504.427 L522.672,-654.805 C522.672,-672.324 535.812,-686.924 553.332,-688.384 C572.311,-689.844 586.911,-675.244 586.911,-656.265 L586.911,-365.729 C586.911,-232.871 478.873,-124.833 346.015,-124.833 L322.655,-124.833 L-318.275,-124.833 L-346.015,-124.833 C-478.873,-124.833 -586.911,-232.871 -586.911,-365.729 C-586.911,-365.729 -586.911,-654.805 -586.911,-654.805 Z " fill="#fff6de" fill-opacity="1.00" filter="url(#l1eeqQZf)" />				<defs>					<filter id="t2yhWnuZ" x="0.00%" y="0.00%" width="138.10%" height="193.57%" filterUnits="objectBoundingBox">						<feOffset dx="38.93" dy="38.93" in="SourceAlpha" result="shadowOffsetOuter1" />						<feGaussianBlur stdDeviation="19.47" in="shadowOffsetOuter1" result="shadowBlurOuter1" />						<feFlood flood-color="#000000" flood-opacity="0.14" />						<feComposite in2="shadowBlurOuter1" operator="in" />						<feMerge>							<feMergeNode />							<feMergeNode in="SourceGraphic" />						</feMerge>					</filter>				</defs>				<path d="M-437.993,108.084 C-489.093,108.084 -529.972,71.5848 -540.192,24.8655 L-335.795,24.8655 C-346.015,73.0448 -388.354,108.084 -437.993,108.084 Z " fill="#663b14" fill-opacity="1.00" filter="url(#t2yhWnuZ)" />				<defs>					<filter id="e4HTHY1q" x="0.00%" y="0.00%" width="138.10%" height="193.57%" filterUnits="objectBoundingBox">						<feOffset dx="38.93" dy="38.93" in="SourceAlpha" result="shadowOffsetOuter1" />						<feGaussianBlur stdDeviation="19.47" in="shadowOffsetOuter1" result="shadowBlurOuter1" />						<feFlood flood-color="#000000" flood-opacity="0.14" />						<feComposite in2="shadowBlurOuter1" operator="in" />						<feMerge>							<feMergeNode />							<feMergeNode in="SourceGraphic" />						</feMerge>					</filter>				</defs>				<path d="M538.732,24.8655 C528.512,73.0448 487.633,108.084 436.533,108.084 C385.434,108.084 344.555,71.5848 334.335,24.8655 L538.732,24.8655 Z " fill="#663b14" fill-opacity="1.00" filter="url(#e4HTHY1q)" />				<defs>					<filter id="18aXw2Eq" x="0.00%" y="0.00%" width="130.48%" height="131.75%" filterUnits="objectBoundingBox">						<feOffset dx="38.93" dy="38.93" in="SourceAlpha" result="shadowOffsetOuter1" />						<feGaussianBlur stdDeviation="19.47" in="shadowOffsetOuter1" result="shadowBlurOuter1" />						<feFlood flood-color="#000000" flood-opacity="0.14" />						<feComposite in2="shadowBlurOuter1" operator="in" />						<feMerge>							<feMergeNode />							<feMergeNode in="SourceGraphic" />						</feMerge>					</filter>				</defs>				<path d="M-5.83993,442.419 L-128.478,565.057 C-125.558,633.676 -68.619,687.695 -1.04426e-05,687.695 C65.699,687.695 119.718,638.056 127.018,573.817 L-5.83993,442.419 Z " fill="#663b14" fill-opacity="1.00" filter="url(#18aXw2Eq)" />				<defs>					<filter id="cn1U9YLY" x="0.00%" y="0.00%" width="173.06%" height="118.85%" filterUnits="objectBoundingBox">						<feOffset dx="38.93" dy="38.93" in="SourceAlpha" result="shadowOffsetOuter1" />						<feGaussianBlur stdDeviation="19.47" in="shadowOffsetOuter1" result="shadowBlurOuter1" />						<feFlood flood-color="#000000" flood-opacity="0.14" />						<feComposite in2="shadowBlurOuter1" operator="in" />						<feMerge>							<feMergeNode />							<feMergeNode in="SourceGraphic" />						</feMerge>					</filter>				</defs>				<path d="M-170.817,102.244 L-277.396,-42.2935 L-277.396,224.882 L-170.817,370.88 L-170.817,102.244 Z " fill="#a06320" fill-opacity="1.00" filter="url(#cn1U9YLY)" />				<defs>					<filter id="nnBjuW5H" x="0.00%" y="0.00%" width="132.72%" height="112.94%" filterUnits="objectBoundingBox">						<feOffset dx="38.93" dy="38.93" in="SourceAlpha" result="shadowOffsetOuter1" />						<feGaussianBlur stdDeviation="19.47" in="shadowOffsetOuter1" result="shadowBlurOuter1" />						<feFlood flood-color="#000000" flood-opacity="0.14" />						<feComposite in2="shadowBlurOuter1" operator="in" />						<feMerge>							<feMergeNode />							<feMergeNode in="SourceGraphic" />						</feMerge>					</filter>				</defs>				<path d="M255.496,-84.6328 L17.5197,-84.6328 L17.5197,407.38 L127.018,516.878 L127.018,480.379 L127.018,426.359 L127.018,89.1045 L255.496,-84.6328 Z " fill="#e8cba0" fill-opacity="1.00" filter="url(#nnBjuW5H)" />				<defs>					<filter id="G4iH3lwh" x="0.00%" y="0.00%" width="173.06%" height="118.85%" filterUnits="objectBoundingBox">						<feOffset dx="38.93" dy="38.93" in="SourceAlpha" result="shadowOffsetOuter1" />						<feGaussianBlur stdDeviation="19.47" in="shadowOffsetOuter1" result="shadowBlurOuter1" />						<feFlood flood-color="#000000" flood-opacity="0.14" />						<feComposite in2="shadowBlurOuter1" operator="in" />						<feMerge>							<feMergeNode />							<feMergeNode in="SourceGraphic" />						</feMerge>					</filter>				</defs>				<path d="M169.357,370.88 L275.936,224.882 L275.936,-42.2935 L169.357,102.244 L169.357,370.88 Z " fill="#a06320" fill-opacity="1.00" filter="url(#G4iH3lwh)" />				<defs>					<filter id="fQLjarUE" x="0.00%" y="0.00%" width="133.33%" height="113.17%" filterUnits="objectBoundingBox">						<feOffset dx="38.93" dy="38.93" in="SourceAlpha" result="shadowOffsetOuter1" />						<feGaussianBlur stdDeviation="19.47" in="shadowOffsetOuter1" result="shadowBlurOuter1" />						<feFlood flood-color="#000000" flood-opacity="0.14" />						<feComposite in2="shadowBlurOuter1" operator="in" />						<feMerge>							<feMergeNode />							<feMergeNode in="SourceGraphic" />						</feMerge>					</filter>				</defs>				<path d="M-23.3596,401.54 L-23.3596,-84.6328 L-256.956,-84.6328 L-128.478,89.1045 L-128.478,426.359 L-128.478,480.379 L-128.478,506.658 L-23.3596,401.54 Z " fill="#e8cba0" fill-opacity="1.00" filter="url(#fQLjarUE)" />				<defs>					<filter id="mQX7gjH8" x="0.00%" y="0.00%" width="172.07%" height="204.81%" filterUnits="objectBoundingBox">						<feOffset dx="38.93" dy="38.93" in="SourceAlpha" result="shadowOffsetOuter1" />						<feGaussianBlur stdDeviation="19.47" in="shadowOffsetOuter1" result="shadowBlurOuter1" />						<feFlood flood-color="#000000" flood-opacity="0.14" />						<feComposite in2="shadowBlurOuter1" operator="in" />						<feMerge>							<feMergeNode />							<feMergeNode in="SourceGraphic" />						</feMerge>					</filter>				</defs>				<path d="M205.857,90.1579 C179.577,104.758 169.357,151.477 169.357,151.477 C169.357,151.477 214.617,166.077 240.896,150.017 C267.176,135.417 277.396,88.6979 277.396,88.6979 C277.396,88.6979 230.677,75.5581 205.857,90.1579 Z " fill="#000000" fill-opacity="1.00" filter="url(#mQX7gjH8)" />				<defs>					<filter id="gZIaEyYH" x="0.00%" y="0.00%" width="172.07%" height="205.73%" filterUnits="objectBoundingBox">						<feOffset dx="38.93" dy="38.93" in="SourceAlpha" result="shadowOffsetOuter1" />						<feGaussianBlur stdDeviation="19.47" in="shadowOffsetOuter1" result="shadowBlurOuter1" />						<feFlood flood-color="#000000" flood-opacity="0.14" />						<feComposite in2="shadowBlurOuter1" operator="in" />						<feMerge>							<feMergeNode />							<feMergeNode in="SourceGraphic" />						</feMerge>					</filter>				</defs>				<path d="M-208.777,90.5645 C-235.056,75.9647 -280.316,89.1045 -280.316,89.1045 C-280.316,89.1045 -270.096,135.824 -243.816,150.424 C-217.537,165.023 -172.277,151.884 -172.277,151.884 C-172.277,151.884 -182.497,105.164 -208.777,90.5645 Z " fill="#000000" fill-opacity="1.00" filter="url(#gZIaEyYH)" />			</g>		</g>	</svg>